<?xml version="1.0" encoding="UTF-8"?><svg id="_레이어_2" xmlns="http://www.w3.org/2000/svg" viewBox="0 0 149.32 136.83"><defs><style>.cls-1{fill:#262626;fill-rule:evenodd;}</style></defs><g id="_레이어_1-2"><g id="_242586600"><path class="cls-1" d="m120.19,39.35l-18.42-1.27c.19-23.76-.79-22.04-27.47-23.07l.13-12.41c9.24-.13,1.96,7.36,5.5,11.41l1.06-10.35,13.92.87c-.71,3.15-4.05,7.36-2.8,10.35,2.75-2.51.9-4.02,3.81-6.59,2.22-1.98.98-.21,2.65-3.55.05-.13.13-.37.26-.5l7.65-.56c.05,7.59-5.03,9.76-6.48,15.59,2.2-.9,1.8-1.22,2.94-3.28.69-1.3,1.38-2.36,2.22-3.86l4.63-7.83,8.76,1.88c-1.14,7.33.5,4.26-9.13,13.26-6.51,6.06-8.89,9.76-.95,2.65,2.17-1.93,3.47-3.49,5.87-5.69,5.11-4.71,4.92-4.23,5.42-.37.87,6.72.58,16.06.42,23.34Zm-20.61-1.14c-13.18-.21-25.32-.85-37.87-1.38-.19-4.1.26-15.08,2.38-17.07,2.51-2.36,13.07-2.09,17.57-1.72,6.3.56,12.23-.21,15.43,4.08,2.41,3.25,2.36,11.72,2.49,16.09Zm-41.55-5.66c-.26,1.08-.48,2.59-.58,4.29l-10.96-.85c-.56-2.91-1.4-3.68-1.01-6.72.4-3.44-2.09-15.48,2.75-23.07,9,4.05,7.59,6.48,12.33,10.08-1.43-4.31-8.12-9.95-9.24-11.75,2.75-1.83,7.09-1.56,10.32-1.51,4.15.05,7.38-.37,11.06-.48-.79,2.33.05,9.21-.03,13.02l-6.17.03c0-3.55.66-8.6-.61-11.54-2.04.87-.87-.93-.53,5.95.05,1.08.21,3.12.24,4,.08,4.1-3.12,2.43-4.66,6.85-.56,1.64-.82,5.53-1.08,7.49-2.3-1.08-8.65-6.22-11.88-5.74l-1.4,5.56c1.51.77,7.07,1.48,11.43,4.39ZM6.82,54.01c.93-5.32-1.75-8.18,2.12-11.99,6.69-6.62,13.5-6.93,24.98-5.03,9.16,1.48,19.37,1.77,28.92,2.28l44.51,1.67c4.95.32,9.9.53,14.18,1.01,16.91,1.91,19.69-1.91,22.7,9.29,2.17,7.94,1.85,20.16,1.64,29.48-.21,10.32,1.27,21.06.53,31.07-1.19,15.9.11,19.56-10.69,21.01.98-3.02,1.46-1.93,1.85-4.34-3.94,3.23-2.75,6.77-9.08,5.61-6.03-1.08-14.95-1.51-20.3-3.6-4.37-1.72-16.62-2.2-20.96-2.17-5.48.03-8.84.66-14.71.16-6.4-.58-9.29.34-14.55,1.08-8.36,1.16-18.52-2.09-26.83-3.07-9.18-1.08-4.08,1.64-12.81.66-15.74-1.77-15.85-1.98-15.53-14.13.08-2.88-.13-5.03.5-7.67,2.59-11.22.11-27.6,2.17-36.84,1.03-4.6.53-9.71,1.35-14.47Zm-3.6,13.28c-.05,1.75-.4,4.39-.4,5.5s.29,3.57.29,5.45l-.87,22.92c-.71,4.9-3.39,14.24-1.69,21.2,1.75,7.33,11.62,6.67,15.96,6.35,1.67-.11,4.5-.08,6.14.05l4.26.05c8.89-.79,22.94,4.76,32.31,2.41,7.91-2.01,16.46.24,22.33-.32,5.56-.5,16.75.16,21.96,1.08,3.39.61,5.95,1.61,9.29,2.2,3.57.64,7.12.82,10.77,1.53,13.81,2.65,9.5-.13,14.29-1.43,3.57-.98,8.92-1.91,9.71-7.81.71-5.21,1.3-16.86.9-22.57-.61-8.36.16-30.51.77-40.3.29-4.47-.37-3.76-.66-4.63-.48-1.51-.19-7.33-.85-10.35-.56-2.49-2.75-5.66-4.55-6.77-4.63-2.86-12.46-.93-21.43-2.51,2.28-7.67,1.16-4.39.69-15.32l.9-.5c.05-.03.21-.13.26-.16,1.48-.98.69-11.11.64-13.39-.05-4.6-.93-3.76-4.08-7.49-4.97-.08-9.42-1.46-13.65-1.83-3.65-.34-9.5.74-13.76.74-13.05-.03-10.74-1.85-26.04-1.3-10.03.34-19.4-1.19-21.7,8.41-1.91,7.97-.71,21.54-3.41,27.07-3.57-1.08-14.69-2.38-18.97-2.3-3.89.08-5.32,1.48-8.23,2.65-3.12,1.24-4.39,2.22-6.38,4.18l-.53-.85c-1.03-1.16-.69-.82-1.56-.85.26,5.27.11,3.07-3.07,5.35l.37,23.52Z"/><path class="cls-1" d="m57.45,82.48c1.88-4.5.21-5.8,5.66-13.07,2.22-3.02,6.75-8.2,11.38-8.18,3.2,0,1.01.56,3.2.82,2.54.29.71-.69,3.47-.77,1.93-.08,4.71.79,6.48,1.96,1.24.85-.08.4,1.43.66.9.13,1.3-.98,4.58,1.88,2.38,2.09,2.75,2.78,2.86,6.85.93-.64,1.88-3.86,3.41,4.02.53,2.57,1.19,5.9,1.35,8.34.34,5.74-2.09,15.27-6.43,18.58-.66.53-2.3,1.48-3.02,1.88-8.04,4.5-16.17,3.36-24.85,1.77-15.64-2.83-20.53-22.81-8.68-38.4,3.33-4.34,6.3-7.12,12.17-8.41-2.51,2.7-5.87,4.29-8.81,9.29-1.4,2.41-4.68,7.75-4.66,11.11l.13.87c.03.11.13.32.13.4.03.08.11.26.19.4Zm33.45-6.67c1.03,2.88,5.03,2.57,6.09,11.03,1.03,7.99-1.77,12.38-2.43,15.19,1.96-.64,1.48-.37,2.22-2.65.5-1.56.79-2.75,1.19-4.29,2.91-11.11-4.13-25.3-7.07-19.29Zm-8.73,34.67c5.98-1.06,3.73-.13,10.4-3.2,4.68-2.17,4.47-1.96,7.12-6.17,7.38-11.59,3.15-35.19-6.46-39.11-3.33-1.35-5.74-3.47-9.66-3.81-3.73-.32-8.76-.5-12.57.24-14.02,2.75-21.88,18.23-21.65,32.07.05,3.84,4.42,14.55,9.71,17.12,5.85,2.83,15.98,4.15,23.1,2.86Z"/><path class="cls-1" d="m29.11,40.49c-1.8-1.72-3.68-.34-5.72.77-2.67,1.48-12.81,11.51-9.29,16.8,2.2-1.14.24-3.04,2.01-6.4,1.27-2.41,5.42-7.86,7.97-8.65,3.04-.93,4.23.87,5.03-2.51Z"/><path class="cls-1" d="m76.37,66.08c-.4-.53.74-1.03-1.85-1.08-2.28-.03-8.23,4.68-9.98,7.62-1.56,2.65-5.42,12.01-3.97,15.16,1.51-2.75.98-7.22,4.66-13.84,1.19-2.14,2.46-3.89,4.6-5.19,5.77-3.44,4.31.87,6.54-2.67Z"/><path class="cls-1" d="m12.28,92.8c-2.94,1.08-1.51,1.48-1.72,11.06-.05,2.62-.77,9.9-.11,11.3,1.48-1.56,2.8-20.43,1.83-22.36Z"/><path class="cls-1" d="m136.89,123.79c1.3-.58.37,1.06,1.06-1.48.16-.58.29-2.22.37-3.2.26-3.76,3.1-18.29.08-18.58-2.51-.24-.56,4.84-.61,10.64-.03,4.45-.26,8.65-.9,12.62Z"/><path class="cls-1" d="m17.17,100.79c-2.67,1.59-.69,3.49-1.08,11.01l.48,4.21c1.61-1.75,1.4-13.79,1.4-13.79-.48-2.25-.34-.79-.79-1.43Z"/><path class="cls-1" d="m118.89,25.32c-.05-.03.26-1.91-2.57,1.53-1.16,1.4-1.46,2.17-2.91,3.28-1.43,1.11-2.2,1.48-3.52,2.54-1.11.87-2.43,1.35-2.99,2.88,1.75-.24,5.37-3.1,6.99-4.39,1.19-.95,5.66-4.39,5-5.85Z"/><path class="cls-1" d="m86.63,88.94c-1.38,1.91.29,3.39-.32,6.62-.5,2.59-1.16,4.71-1.61,7.17l1.64-2.78c1.03-2.83,2.86-8.86.29-11.01Z"/><path class="cls-1" d="m132.12,90.69c-2.38,5.24-.77,11.88-1.22,15.32-.4,3.25-.32,2.78.45,4.79l.77-20.11Z"/><path class="cls-1" d="m29.05,46.26c-2.54-.37-2.59.71-3.28,2.78-.69,2.12-1.48,3.1-1.96,4.82,2.86-.77,5.19-7.25,5.24-7.59Z"/><path class="cls-1" d="m78.11,72.16c-.45.32-.93.19-1.48,2.12-1.59,5.61-1.91,6.83-.03,6.77.13-3.1,2.3-6.59,1.51-8.89Z"/><path class="cls-1" d="m139.98,88.01c-.26,0-.9-2.49-3.23,1.22.61,1.75.93,2.43,3.23,2.12v-3.33Z"/><path class="cls-1" d="m138.21,82.93c2.12-1.88.32-4.42-1.38-2.65-1.32,1.35-.26,4.08,1.38,2.65Z"/><path class="cls-1" d="m21.43,112.52c-1.19,1.91-.11,4.26.82,5.66.77-1.01,1.03-4.68-.82-5.66Z"/></g></g></svg>