<?xml version="1.0" encoding="UTF-8"?><svg id="_레이어_2" xmlns="http://www.w3.org/2000/svg" viewBox="0 0 47.18 48.28"><defs><style>.cls-1{fill:#2b2b2b;fill-rule:evenodd;}</style></defs><g id="_레이어_1-2"><path class="cls-1" d="m5.86,42.31c.28-4.27,3.88-6.67,6.42-9.04,2.51-2.34,5.78-6.5,9.07-7.34-4.83,6.64-10.66,11.66-15.48,16.38Zm26.06-9.54c-3.57-1.28-5.66-4.6-7.67-7.67,3.1,1.2,6.03,4.69,7.67,7.67Zm-9.57-14.59c-3.52-2.71-6.44-6.7-9.54-10.04C9.43,4.45,7.31.07,2.4,3.06c.92,3.85,12.86,16.71,15.73,19.11-2.32,3.88-13.64,15.2-17.38,17.97l-.75,8.15c3.82-.11,3.38-1.2,5.8-3.91l16.54-16.82c4.58,3.65,16.54,18.33,22.37,18.19-2.9-5.41-3.18-3.46-4.24-5.61-1.42-2.93,1.56-3.57-2.04-6.64-4.3-3.68-8.4-5.69-11.72-10.29,3.15-5.64,11.75-12.11,16.1-16.38,2.34-2.29,3.24-4.83,4.35-5.97-4.74-2.87-2.71,1.98-11.88,7.25-5.41,3.12-8.76,8.09-12.95,10.07Z"/></g></svg>