<?xml version="1.0" encoding="UTF-8"?><svg id="_레이어_2" xmlns="http://www.w3.org/2000/svg" viewBox="0 0 83.89 76.8"><defs><style>.cls-1{fill:#2b2b2b;fill-rule:evenodd;}</style></defs><g id="_레이어_1-2"><path class="cls-1" d="m8.54,71.76c2.79-7.2,10.8-9.76,16.99-15.18,16.54-14.51,18.5-14.03,33.56-29.54l8.29-8.01c2.96-2.82,5.41-5.47,9.18-6.78-1.12,6.56-17.07,21.93-22.9,27.65-1.81,1.79-6.64,6.33-7.9,8.06,4.55-2.51,11.61-9.68,14.98-13.17l10.77-10.55c2.54-2.4.73-1.26,4.05-2.87.2,8.73-7.48,14.17-13.78,18.75,5.27-3.26,9.46-7.64,13.56-9.57-.22,5.89-.75,13.06-1.34,19.33-1.14,12-.28,12.33-.78,17.74-11.72,5.41-19.95,3.6-31.92,2.51-7.2-.67-19.89,3.71-32.75,1.62Zm52.28-31v-.06c0-.75-.89,1.2-.42.81l.42-.75ZM0,75.55c5.55,1.9,67.15,2.4,75.08-4.05,5.05-4.1,5.72-56.75,5.8-56.94,1.2-1.34,1.87-1.95,3.01-3.15-.73-1.59.06-.39-.92-1.67-4.35-5.78-1.34-1.7-1.45-9.74-3.57,1.26-6.56,5.8-9.18,8.73-2.73,3.04-7.25,7.14-10.57,9.79-7.84,6.28-24.83,20.62-31.19,27.84-6.08,6.92-18.61,16.71-26.7,23.21-2.46,1.93-3.68,2.09-3.88,5.97Z"/></g></svg>