<?xml version="1.0" encoding="UTF-8"?><svg id="_레이어_2" xmlns="http://www.w3.org/2000/svg" viewBox="0 0 51.53 52.58"><defs><style>.cls-1{fill:#262626;fill-rule:evenodd;}</style></defs><g id="_레이어_1-2"><path class="cls-1" d="m19.96,7.97c3.33-1.43,7.73-4.29,10.93-4.74,5.21-.74,8.12,2.43,9.63,6.72,3.2,9.02-1.64,19.11-8.89,21.54-16.33,5.5-24.4-10.93-14.21-24.03.69-.87,4.1-5.16,5.11-2.78.03.05.08.26.08.32.08,1.22-1.83,2.2-2.65,2.96Zm28.98,41.39c-11.01.64-24.05,1.53-34.61.11l2.12-1.08c2.75-.98,6.09-.82,7.33-1.32-1.08-2.91-14.05,1.98-19.77,1.32l-1.08-2.73c-.71-2.04-.53-2.36,1.19-6.99,1.35-3.63,2.22-6.43,6.91-6.4-1.4,3.84-3.52,2.46-5.11,10.06l-.19,3.18c0,.19.05.24.11.34,1.3-2.51,1.38-5.69,3.07-8.47,1.06-1.72,1.69-1.69,2.65-2.88,2.51-3.1-.48-.53,1.01-3.28,5.87,1.77,8.1,4.15,14.58,3.6,12.54-1.06,9.69-10.64,17.73-3.68,1.51,1.32,2.28,2.36,3.07,4.34,1.51,3.78,1.4,9.16,1.01,13.89Zm2.49.13c.32-6.25.32-17.52-4.84-20.61-3.31-1.98-2.75-1.03-5.48-3.57,2.3-7.54,3.57-10.98.82-18.05C39.17.13,33.16,2.04,28.5.61,27.84.4,27,0,26.44,0c-1.8-.05-7.25,3.2-10,6.48-3.33,4-4.31,6.17-5.37,12.15-1.01,5.48.48,6.32,1.51,10.21-1.96.77-5.03,1.03-6.67,2.46C2.78,34.03.69,40.65.06,44.85c-.34,2.38.93,5.66,1.77,7.41l1.35-1.67c11.56.08,20.88,3.23,37.66,1.43,7.17-.77,5.24.82,10.58-2.54Z"/></g></svg>