<?xml version="1.0" encoding="UTF-8"?><svg id="_레이어_2" xmlns="http://www.w3.org/2000/svg" viewBox="0 0 305.58 346.77"><defs><style>.cls-1{fill:#292929;fill-rule:evenodd;}</style></defs><g id="_레이어_1-2"><g id="_526459384"><path class="cls-1" d="m154.53,304.87c13.15-1.12,11.4-2.1,27.83-2.06.86,3.66,1.05,3.32,1.03,8.22-6.14.17-3.01-.65-4.11,2.06,0,5.12.65,10.93-1.03,14.44,4.21-1.7,2.27-5.36,3.66-10.78.07-.33.38-1.27.5-1.55.69-1.82.31-.98,1.08-2.1-.31,11.12.62,12.65-3.18,20.63-5.38,0-10.59.29-12.12.5-2.63.33-7.32,2.22-11.6,2.58-.48-5.28.91-1.86-2.08-3.08,1.36,3.16,1.53.33-.98,4.11-7.34,0-8.58-.55-13.41-3.08-.02-5.14,1.65-25.82,3.08-28.86,4.59.48,2.49,3.8.6,10.9-1.58,6.03-1.32,11.45-2.68,16.93,4.69-5.38,2.03-6.77,3.71-12.82,1.03-3.83,1.46,1.34,1.46-6.77,0-4.57.79,1.24,2.56-6.43.84-3.68-3.2-2.85,5.69-2.85ZM32.97,172.86c4.64-5.55-.96-6.46,3.04-14.37,11.64,7.56,10.28,28.43,9.13,40.07l-2.2,15.02c-.74,7.6-6.84,32.59-12.48,38.3-3.92,3.95-8.3,1.46-14.06,1.43.02-15.4-1.58,2.68.22-19.46.55-7.08,2.41-14.42.77-17.6-3.47,5.93-5.07,30.34-5.07,36.03-2.75-.6-3.06-.41-4.78-2.49-4.38-5.26-1.15-31.75.14-38.64.72-3.87-1.27-.62,3.44-3.32.17-3.08-.24-4.61-.22-5.93l1.53-14.44c.24-2.41,1.03-4.09,1.51-6.72l1.55-11.26c.88-4.11.79-9.61,3.01-14.06l12.39,1.98c.22.1.48.24.67.33l2.41,1.77c-.07,5.4-1.15,6.84-1,13.34Zm245.24,72.21c-1.67,0-6.14-1.63-9.37-1.94-7.1-.69-9.59-1.82-9.28-12.5.1-3.51.17-5.36,2.15-8.22,1.96,5.16.48,1.22,12.41,2.01,1.34.07,1.6.02,2.99.29l2.44.72c1.05.22,2.1,2.8,2.53-1.12.6-5.31-3.97-.74-10.59-2.34l-1.51-.57c10.38-2.63,17.1-3.75,20.61-10.31-2.34-3.18.67-1.72-4.11-2.03,5.62-9.04-3.92-3.08-16.16.31-.38.1-3.8,1-4.04,1.12-2.3,1.2-1.6.19-2.44,2.65,3.16,2.06,8.68.86,11.57.22,3.92-.88,4.93-1.24,10.02-1.27-1.53,2.13-.62,1.05-4.52,2.7l-19.18,6.6c-.02-6.91-.38-7.51,1.32-13.13l6-44.5c1.67-5.33.24-6.91,5.88-15.83,2.85-4.5,1.6-1.86,3.4-2.63,5.48-2.37,3.66-1.32,16.45-1.24,1.34,5.69,3.68,6.89,2.75,19.03l-2.89,50c-.29,3.18-1.15,3.63-.6,6.96.72,4.28,1.94.02.79,6.46-.43,2.39-.53,2.06-.96,3.28l-1.05,3.08c-.96,3.04-.93,3.9-3.06,6.24-2.03,2.25-7.56,5.98-11.55,5.98ZM21.57,146.13c-10.23,0-7.65,2.96-15.45,8.25,1.86,6.96,2.75-.84-.5,13.96L.22,214.44c0,.67.02,2.8.02,2.87-.02,1.24-.12,1.58-.24,4.06l.22,22.55c.12,2.44-.24.84.33,3.59.5,2.37,1.51,5,2.75,6.55l2.15,1.98c.17.12.43.29.62.38,6.17,3.3,20.9,5.91,27.4-.48,2.92-2.85,5.83-7.41,7.1-11.45,1.08-3.4.84-4.69,2.1-8.25l9.66-43.9c.65-3.66.98-4.45,1.2-8.11.33-5.62-1.24-8.89-1.91-12.55-1.29-7.22-1.34-9.04-4.61-15.97-.12-.22-.24-.48-.33-.69-.12-.22-.24-.48-.36-.69-1.77-3.18-3.59-4.28-7.22-5.12,2.46-5.16-.02-6.89,0-12.36.07-11.95,9.06-54.32,10.35-71.11.33-4.21,1.48-6.05,1.75-8.82,1-9.87,0-12.15,4.38-19.06l11.14-15.66c.19-.12.45-.26.65-.38l4.14-2.06c.22-.1.48-.22.72-.31,24.1-10.69,37.71-7.34,64.8-7.34,5.21,0,5.69,1,11.33,1.08,17.43.26,32.49-1.15,48.73-.62,6.29.19,17.43-.07,23.98,1.03l44.62,4.9c2.58,1.39,3.83,3.63,5.4,5.93.14.17.31.41.43.6l7.01,20.85c4.47,13.15,3.61,30.92,2.39,42.97-.6,5.86-1.91,46.27-3.71,48.03-.53.53-5.14.41-10.81,5.62-.17.14-.41.36-.55.5l-10.28,17.55c3.2-1.15,1.05.19,3.35-2.82,2.94-3.85,4.95-8.87,9.01-11.6,0,6.22-2.08,11.86-3.32,17.26l-5.14,32.9c-1.34,14.11-4.11,27.45-4.61,39.98v.74c-.26,5.33.48,6.67,5.19,9.78,3.95,2.63,3.83,2.39,9.97,2.41.07,12.29.12,23.48-1.41,34.62-.79,5.76-1.96,12.94-5.76,15.9l-1.89,1.22c-.19.12-.43.29-.62.41l-3.44,1.72s-3.4,1.17-3.85,1.29c-2.41.62-5.28.96-6.96,1.32-3.37.77-3.83.93-7.72,1.55-11.98,1.94-27.83,2.49-39.81,5.59-11.52,3.01-6.38-4.26-6.31-11.45.07-5.21-3.87-4.76-9.85-4.76-4.04,0-42.46,1.79-46.38,5.14l-2.25,6c-2.53,11.93-1.82,11.91-1.86,24.94-.1,16.76,2.61,14.35,21.66,13.34,7.84-.43,20.23-2.08,28.43-5.52l4.64-2.58c.17-.12.38-.33.53-.48l3.11-11.95c.67-3.78,1.32-3.9.41-6.26,3.87-.29,8.27-2.13,12.39-2.99,4.66-.96,8.32-.98,13.65-1.53l26.37-3.83c7.72-1.32,18.53-4.09,23.77-8.2,7.29-5.71,7.44-29.22,8.75-39.36.36-2.65.65-7.91.57-13.1,16.98,1.39,20.97-14.99,23.84-30.25.26-1.36.05-.79.31-3.47.86-9.3,2.53-15.28,3.08-26.04l1.51-7.34c1.27-8.56.91-32.25-1.63-39.38-2.1-5.98-5-6.81-10.38-8.18l-1.58-.5c-3.59-1.08-.86-8.7-.69-11.64l2.06-73.19c0-4.38-.81-4.59-.93-7.41-.38-8.34,4.18-3.23-.91-11.36l-4.3-10.11c-3.25-6.62-7.51-10.54-14.37-13.46l-1.39-.65c-5.28-2.27-27.11-1.32-34.79-1.32-15.4,0-27.5-2.13-42.25-2.08-7.87.02-19.87.77-26.8-.93-2.87-.69-.45-.36-4.02-.55l-22.79-.57c-7.77,0-8.85-2.03-14.2-1.79l-43.97,4.45c-22.48,6.19-25.89,6.17-33.55,27.26-6.53,17.98-4.5,17.19-7.51,34.74l-4.38,21.4c-3.35,12.22-2.73,25.2-4.78,37.49-4.57,27.45-1.27,20.78-10.16,20.78Z"/><path class="cls-1" d="m272,192.44l10.02-40.46c1.08-2.77,1.6-2.58,2.34-5.81-5.88,0-5.95,4.28-8.3,16.33l-4.06,29.93Z"/><path class="cls-1" d="m148.36,335.78c2.92-1.17.53,1.77,3.66-8.7,1.2-3.97,4.09-15.9,2.49-19.1-3.87,2.65-2.73,2.77-4.23,13.29l-1.91,14.51Z"/><path class="cls-1" d="m155.56,332.7c3.28-1.22,2.08,1.51,3.2-6.1.43-2.99,1.32-4.4,1.98-7.36.69-3.04,1.58-9.73-.02-12.29-2.8.96-1-1.51-2.41,1.53-1.65,3.54,1.75.65-.22,10.23-1,4.88-1.51,9.59-2.53,13.99Z"/><path class="cls-1" d="m168.97,330.62c3.66-1.53,1.17.22,2.44-6.81,1.2-6.72,3.44-11.19,1.67-18.94-3.13.31-4.16-.1-3.51,3.49.67,3.66,1.53,1.77,1.55,6.81.02,8.32-2.18-.67-2.15,15.45Z"/><path class="cls-1" d="m26.73,221.35c-.02-10.35-.55-8.32-3.11-9.25-1.55,1.72-.65,2.15-.31,4.33.24,1.53.55,3.85.72,5.12.17,1.34.62,5.91.62,10.14,2.65-1.17,2.08,2.92,2.08-10.33Z"/><path class="cls-1" d="m280.34,189.34c1.75-2.06,5.95-16.62,4.06-20.54-2.89,2.25-4.16,15.76-4.06,20.54Z"/><path class="cls-1" d="m17.45,181.16c2.58-2.94,1.55-1.65,2.01-4.16l1.08-14.39c-5.28,1.32-1.89,1.75-1.98,8.25-.05,4.38-1.08,4.81-1.1,10.31Z"/><path class="cls-1" d="m276.16,236.82h3.11c-.43-4.83,1.1-1.75-2.03-4.09-.86,1.63-1.08,1.43-1.08,4.09Z"/></g></g></svg>