<svg width="15" height="21" viewBox="0 0 15 21" fill="none" xmlns="http://www.w3.org/2000/svg">
<mask id="path-1-inside-1_60_359" fill="white">
<path fill-rule="evenodd" clip-rule="evenodd" d="M12.7778 11.46C13.7037 10.2584 14.2544 8.75284 14.2544 7.11864C14.2544 3.18713 11.0673 0 7.13573 0C3.20422 0 0.0170898 3.18713 0.0170898 7.11864C0.0170898 8.75182 0.567063 10.2565 1.49191 11.4577L7.13553 21L12.7778 11.46Z"/>
</mask>
<path d="M12.7778 11.46L11.9857 10.8496L11.9483 10.8981L11.9171 10.9509L12.7778 11.46ZM1.49191 11.4577L2.35264 10.9486L2.32153 10.896L2.28425 10.8476L1.49191 11.4577ZM7.13553 21L6.2748 21.5091L7.13553 22.9644L7.99626 21.5091L7.13553 21ZM13.2544 7.11864C13.2544 8.52435 12.7816 9.8168 11.9857 10.8496L13.5699 12.0703C14.6259 10.7 15.2544 8.98132 15.2544 7.11864H13.2544ZM7.13573 1C10.515 1 13.2544 3.73941 13.2544 7.11864H15.2544C15.2544 2.63484 11.6195 -1 7.13573 -1V1ZM1.01709 7.11864C1.01709 3.73941 3.7565 1 7.13573 1V-1C2.65193 -1 -0.98291 2.63484 -0.98291 7.11864H1.01709ZM2.28425 10.8476C1.48932 9.81518 1.01709 8.52348 1.01709 7.11864H-0.98291C-0.98291 8.98015 -0.355191 10.6979 0.699563 12.0678L2.28425 10.8476ZM7.99626 20.4909L2.35264 10.9486L0.631179 11.9668L6.2748 21.5091L7.99626 20.4909ZM11.9171 10.9509L6.2748 20.4909L7.99626 21.5091L13.6385 11.969L11.9171 10.9509Z" fill="black" mask="url(#path-1-inside-1_60_359)"/>
</svg>
